<mxfile host="Electron" modified="2023-11-13T23:33:09.979Z" agent="Mozilla/5.0 (Macintosh; Intel Mac OS X 10_15_7) AppleWebKit/537.36 (KHTML, like Gecko) draw.io/22.0.3 Chrome/114.0.5735.289 Electron/25.8.4 Safari/537.36" etag="eVw5Hkc7jpo7sO1w67dp" version="22.0.3" type="device">
  <diagram name="Page-1" id="gE4kiXeh7UuOyHTcPQmp">
    <mxGraphModel dx="955" dy="598" grid="1" gridSize="10" guides="1" tooltips="1" connect="1" arrows="1" fold="1" page="1" pageScale="1" pageWidth="2000" pageHeight="2000" math="0" shadow="0">
      <root>
        <mxCell id="0" />
        <mxCell id="1" parent="0" />
        <mxCell id="Fx7PZbtAprNgHvCBvP7j-5" style="edgeStyle=orthogonalEdgeStyle;rounded=0;orthogonalLoop=1;jettySize=auto;html=1;entryX=0.993;entryY=0.182;entryDx=0;entryDy=0;entryPerimeter=0;" parent="1" source="Fx7PZbtAprNgHvCBvP7j-2" target="3M1r3zNhXKizJC0vnfH8-4" edge="1">
          <mxGeometry relative="1" as="geometry" />
        </mxCell>
        <mxCell id="3M1r3zNhXKizJC0vnfH8-4" value="ServiceRequest&lt;br&gt;&lt;br&gt;&lt;i&gt;requisition&lt;/i&gt;" style="rounded=0;whiteSpace=wrap;html=1;" vertex="1" parent="1">
          <mxGeometry x="380" y="380" width="120" height="60" as="geometry" />
        </mxCell>
        <mxCell id="3M1r3zNhXKizJC0vnfH8-3" value="ServiceRequest&lt;br&gt;&lt;br&gt;&lt;i&gt;requisition&lt;/i&gt;" style="rounded=0;whiteSpace=wrap;html=1;" vertex="1" parent="1">
          <mxGeometry x="370" y="370" width="120" height="60" as="geometry" />
        </mxCell>
        <mxCell id="Fx7PZbtAprNgHvCBvP7j-4" style="edgeStyle=orthogonalEdgeStyle;rounded=0;orthogonalLoop=1;jettySize=auto;html=1;entryX=1;entryY=0.5;entryDx=0;entryDy=0;endArrow=none;endFill=0;startArrow=classic;startFill=1;" parent="1" source="Fx7PZbtAprNgHvCBvP7j-3" target="Fx7PZbtAprNgHvCBvP7j-2" edge="1">
          <mxGeometry relative="1" as="geometry" />
        </mxCell>
        <mxCell id="3M1r3zNhXKizJC0vnfH8-2" value="Task:requestTask&lt;br&gt;&lt;br&gt;&lt;i&gt;groupIdentifier&lt;/i&gt;" style="rounded=0;whiteSpace=wrap;html=1;" vertex="1" parent="1">
          <mxGeometry x="620" y="380" width="120" height="60" as="geometry" />
        </mxCell>
        <mxCell id="3M1r3zNhXKizJC0vnfH8-1" value="Task:requestTask&lt;br&gt;&lt;br&gt;&lt;i&gt;groupIdentifier&lt;/i&gt;" style="rounded=0;whiteSpace=wrap;html=1;" vertex="1" parent="1">
          <mxGeometry x="610" y="370" width="120" height="60" as="geometry" />
        </mxCell>
        <mxCell id="Fx7PZbtAprNgHvCBvP7j-1" value="ServiceRequest&lt;br&gt;&lt;br&gt;&lt;i&gt;requisition&lt;/i&gt;" style="rounded=0;whiteSpace=wrap;html=1;" parent="1" vertex="1">
          <mxGeometry x="360" y="360" width="120" height="60" as="geometry" />
        </mxCell>
        <mxCell id="Fx7PZbtAprNgHvCBvP7j-2" value="Task:requestTask&lt;br&gt;&lt;br&gt;&lt;i&gt;groupIdentifier&lt;/i&gt;" style="rounded=0;whiteSpace=wrap;html=1;" parent="1" vertex="1">
          <mxGeometry x="600" y="360" width="120" height="60" as="geometry" />
        </mxCell>
        <mxCell id="Fx7PZbtAprNgHvCBvP7j-3" value="Task:requestGroup&lt;br&gt;&lt;br&gt;&lt;i&gt;groupIdentifier&lt;/i&gt;" style="rounded=0;whiteSpace=wrap;html=1;" parent="1" vertex="1">
          <mxGeometry x="830" y="360" width="120" height="60" as="geometry" />
        </mxCell>
        <mxCell id="BJ6Q3StGLXeSKE2PdAIW-3" value="partOf" style="text;html=1;strokeColor=none;fillColor=none;align=center;verticalAlign=middle;whiteSpace=wrap;rounded=0;" parent="1" vertex="1">
          <mxGeometry x="732" y="361" width="60" height="30" as="geometry" />
        </mxCell>
        <mxCell id="BJ6Q3StGLXeSKE2PdAIW-4" value="focus" style="text;html=1;strokeColor=none;fillColor=none;align=center;verticalAlign=middle;whiteSpace=wrap;rounded=0;" parent="1" vertex="1">
          <mxGeometry x="548" y="361" width="60" height="30" as="geometry" />
        </mxCell>
      </root>
    </mxGraphModel>
  </diagram>
</mxfile>
